<svg width="239" height="215" viewBox="0 0 239 215" fill="none" xmlns="http://www.w3.org/2000/svg">
<path d="M117.15 97.6072C114.808 125.31 173.864 130.895 173.864 130.895H37.2891C37.2891 130.895 53.4935 123.961 69.0026 121.648C84.5116 119.337 98.8643 118.644 103.494 91.5967C108.124 64.5508 109.744 28.3543 127.338 14.7822C127.338 14.7822 111.695 34.2342 119.004 65.2425C119.004 65.2425 161.366 38.1965 179.653 37.5039C179.653 37.5039 120.085 62.9127 117.15 97.6072Z" fill="#A30046"/>
<path d="M82.8916 12.9926C82.8916 12.9926 120.029 30.1056 95.9045 103.849C95.9045 103.849 103.723 65.7641 43.75 43.5804C43.75 43.5804 72.1495 46.7491 91.9823 59.8999C91.9823 59.8999 100.773 37.0634 82.8916 12.9917V12.9926Z" fill="#A30046"/>
<path d="M202.515 49.8909C202.515 49.8909 167.206 29.2759 120.463 91.2395C120.463 91.2395 147.259 63.038 199.802 99.4511C199.802 99.4511 180.944 78.0092 158.793 69.2966C158.793 69.2966 172.514 49.0261 202.514 49.8909H202.515Z" fill="#A30046"/>
<path d="M91.6999 43.8507C91.6999 48.2815 88.1022 51.8743 83.6654 51.8743C79.2286 51.8743 75.6309 48.2815 75.6309 43.8507C75.6309 39.4199 79.2276 35.8262 83.6654 35.8262C88.1032 35.8262 91.6999 39.419 91.6999 43.8507Z" fill="#A30046"/>
<path d="M134.374 49.8224C134.374 54.2542 130.777 57.8469 126.338 57.8469C121.9 57.8469 118.303 54.2542 118.303 49.8224C118.303 45.3907 121.9 41.7988 126.338 41.7988C130.776 41.7988 134.374 45.3907 134.374 49.8224Z" fill="#A30046"/>
<path d="M186.219 68.6141C185.981 73.0403 182.196 76.434 177.765 76.1979C173.334 75.9599 169.934 72.181 170.172 67.7557C170.411 63.3305 174.196 59.9349 178.626 60.1729C183.057 60.41 186.456 64.188 186.219 68.6141Z" fill="#A30046"/>
<path d="M186.223 54.0973C189.098 61.6237 190.69 69.7778 190.69 78.2996C190.69 81.1489 190.493 83.9509 190.152 86.7094C190.891 87.3594 191.604 87.9965 192.284 88.615C192.782 85.2463 193.048 81.8035 193.048 78.2996C193.048 69.5908 191.446 61.2524 188.539 53.5464C187.756 53.7214 186.973 53.8946 186.223 54.0973Z" fill="#A7A6A6"/>
<path d="M59.2284 53.0567C58.5422 52.6901 57.8255 52.3354 57.1217 51.9771C53.8253 60.1155 51.9922 68.9956 51.9922 78.2998C51.9922 93.8192 57.0558 108.175 65.605 119.828C66.472 119.669 67.3417 119.523 68.2115 119.388C59.5205 107.962 54.3502 93.7248 54.3502 78.2998C54.3502 69.3827 56.0924 60.8692 59.2284 53.0567Z" fill="#A7A6A6"/>
<path d="M60.7031 44.4304C61.4746 44.6249 62.2646 44.8304 63.0676 45.0471C68.4845 35.4262 76.1723 27.2517 85.403 21.2421C85.0311 20.5652 84.6361 19.8846 84.2235 19.2021C74.455 25.5368 66.3426 34.2067 60.7031 44.4304Z" fill="#A7A6A6"/>
<path d="M134.971 8.98952C134.971 8.98952 135.237 8.85711 131.651 8.47838C128.659 8.0904 125.617 7.86816 122.521 7.86816C110.982 7.86816 100.092 10.6674 90.4668 15.5936C91.0398 16.1242 91.6286 16.7001 92.2323 17.3344C101.364 12.7916 111.645 10.222 122.521 10.222C124.701 10.222 126.855 10.3359 128.983 10.5368C128.983 10.5368 130.356 10.5461 133.301 11.0822C150.299 13.7907 165.213 22.7968 175.575 35.6206C176.514 35.4521 177.415 35.3216 178.277 35.2428C167.787 21.7273 152.492 12.1212 134.971 8.98952Z" fill="#A7A6A6"/>
<path d="M196.491 52.376C195.577 52.4408 194.692 52.5362 193.812 52.6408C196.716 60.6579 198.306 69.2964 198.306 78.3006C198.306 83.3203 197.802 88.2224 196.864 92.9708C197.702 93.8014 198.438 94.5515 199.066 95.2024C200.273 89.7558 200.928 84.1046 200.928 78.3006C200.928 69.2158 199.353 60.4959 196.491 52.376Z" fill="#231F20"/>
<path d="M52.3779 49.6853C51.5906 49.327 50.7877 48.9751 49.98 48.627C46.2099 57.7849 44.1152 67.8012 44.1152 78.3008C44.1152 94.3378 48.9749 109.258 57.2913 121.687C58.1833 121.454 59.0865 121.228 59.9998 121.012C51.6407 108.846 46.7356 94.1369 46.7356 78.3008C46.7356 68.178 48.7496 58.5201 52.3779 49.6853Z" fill="#231F20"/>
<path d="M81.3107 14.8343C81.204 14.688 81.1048 14.5417 80.9954 14.3954L79.7548 12.7222C68.3497 20.1661 59.005 30.4852 52.7461 42.6507C53.589 42.8155 54.4791 42.9961 55.4101 43.1961C61.4788 31.6723 70.4323 21.9014 81.3107 14.8334V14.8343Z" fill="#231F20"/>
<path d="M187.705 34.8418C176.904 18.7399 160.281 6.86983 140.876 2.20012V2.19272C140.876 2.19272 139.99 1.97326 139.054 1.77788C139.034 1.77232 139.014 1.78714 138.992 1.78621C133.676 0.642629 128.173 0 122.52 0C108.22 0 94.8131 3.86225 83.2578 10.5682L83.8791 10.8543C83.9875 10.9043 84.7618 11.2766 85.9468 12.0414C96.7983 6.04478 109.263 2.61867 122.52 2.61867C127.594 2.61867 132.552 3.12888 137.349 4.08264L137.366 4.0706C137.538 4.10671 137.909 4.19005 138.659 4.36321C157.557 8.47455 173.837 19.6428 184.593 34.9603C184.593 34.9603 184.73 34.9862 186.161 37.2863C187.639 39.5652 188.998 41.9246 190.227 44.3617C191.319 44.4386 192.351 44.5516 193.322 44.6923C191.926 41.769 190.341 38.955 188.604 36.2456C188.604 36.2456 189.062 36.8021 187.704 34.8427L187.705 34.8418Z" fill="#231F20"/>
<path d="M48.1533 186.815C48.4231 186.76 48.6781 186.735 48.921 186.735C49.1816 186.735 49.4505 186.76 49.7296 186.815L53.3477 192.767V186.815C53.6592 186.76 53.9597 186.735 54.2452 186.735C54.5141 186.735 54.7747 186.76 55.0269 186.815V196.162C54.7487 196.213 54.4975 196.24 54.2721 196.24C54.0283 196.24 53.7649 196.213 53.4775 196.162L49.8325 190.219V196.162C49.5543 196.213 49.2725 196.24 48.9859 196.24C48.6994 196.24 48.4222 196.213 48.1523 196.162L48.1533 186.815Z" fill="#A30046"/>
<path d="M61.1859 193.08C61.082 193.064 60.968 193.048 60.8465 193.035C60.725 193.022 60.6166 193.015 60.521 193.015C60.0954 193.015 59.7589 193.091 59.5122 193.243C59.2646 193.395 59.1422 193.641 59.1422 193.977C59.1422 194.203 59.1895 194.376 59.285 194.498C59.3796 194.621 59.4946 194.708 59.63 194.764C59.7644 194.821 59.9072 194.854 60.0593 194.868C60.2114 194.881 60.3449 194.886 60.4561 194.886C60.5869 194.886 60.7167 194.877 60.8465 194.853C60.9782 194.833 61.0894 194.812 61.1859 194.796V193.08ZM61.1859 191.742C61.1859 191.532 61.1497 191.364 61.082 191.234C61.0116 191.103 60.917 191.002 60.7946 190.93C60.6731 190.856 60.5229 190.805 60.3467 190.78C60.1678 190.753 59.9712 190.742 59.7533 190.742C59.285 190.742 58.7853 190.831 58.2567 191.015C58.1353 190.789 58.0435 190.575 57.9823 190.376C57.922 190.175 57.8914 189.938 57.8914 189.661C58.2734 189.532 58.6554 189.435 59.0375 189.374C59.4195 189.314 59.7746 189.284 60.1047 189.284C61.0069 189.284 61.7125 189.5 62.2207 189.933C62.727 190.367 62.981 191.062 62.981 192.014V195.914C62.6778 196.009 62.3088 196.1 61.8739 196.187C61.4399 196.274 60.9504 196.317 60.4042 196.317C59.9619 196.317 59.5549 196.278 59.1867 196.2C58.8177 196.124 58.5015 195.991 58.2373 195.811C57.9721 195.629 57.7681 195.395 57.6253 195.109C57.4825 194.822 57.4102 194.471 57.4102 194.054C57.4102 193.638 57.4992 193.291 57.6772 193.009C57.8552 192.726 58.0861 192.501 58.368 192.333C58.6499 192.163 58.9642 192.041 59.3119 191.969C59.6587 191.895 60.0064 191.859 60.3541 191.859C60.6045 191.859 60.8836 191.872 61.1868 191.897V191.741L61.1859 191.742Z" fill="#A30046"/>
<path d="M65.7796 190.845H64.9339L64.8672 190.585L67.303 187.478H67.6016V189.44H69.1789C69.2048 189.571 69.2224 189.688 69.2289 189.791C69.2363 189.896 69.2438 190.004 69.2438 190.117C69.2438 190.24 69.2373 190.356 69.2289 190.47C69.2224 190.582 69.2048 190.709 69.1789 190.846H67.6016V193.485C67.6016 193.754 67.6229 193.969 67.6665 194.134C67.7101 194.301 67.7732 194.43 67.8557 194.525C67.9373 194.622 68.0402 194.686 68.1626 194.72C68.2841 194.754 68.4287 194.771 68.5928 194.771C68.7236 194.771 68.8506 194.762 68.9776 194.739C69.1028 194.718 69.2132 194.699 69.3087 194.683C69.3699 194.848 69.4134 195.017 69.4385 195.195C69.4644 195.374 69.4774 195.531 69.4774 195.669C69.4774 195.766 69.4756 195.846 69.4719 195.912C69.4663 195.975 69.4598 196.041 69.4515 196.1C69.0537 196.195 68.6401 196.242 68.2155 196.242C67.4254 196.242 66.8218 196.058 66.4055 195.691C65.9891 195.32 65.7805 194.721 65.7805 193.888V190.848L65.7796 190.845Z" fill="#A30046"/>
<path d="M71.6524 188.312C71.5986 188.015 71.5736 187.726 71.5736 187.438C71.5736 187.162 71.5986 186.873 71.6524 186.568C71.7999 186.543 71.9584 186.523 72.129 186.511C72.2978 186.496 72.4508 186.491 72.5908 186.491C72.7382 186.491 72.8977 186.497 73.072 186.511C73.2445 186.524 73.4058 186.543 73.5533 186.568C73.5792 186.714 73.5968 186.86 73.6043 187.002C73.6135 187.147 73.6191 187.291 73.6191 187.438C73.6191 187.577 73.6135 187.721 73.6043 187.869C73.5968 188.015 73.5792 188.162 73.5533 188.313C73.4058 188.336 73.2473 188.352 73.0776 188.362C72.9088 188.373 72.7494 188.376 72.6019 188.376C72.4647 188.376 72.3071 188.373 72.1346 188.362C71.9612 188.352 71.8008 188.337 71.6534 188.313L71.6524 188.312ZM71.925 190.845H71.0516C71.0265 190.733 71.0071 190.614 70.9922 190.487C70.9802 190.362 70.9746 190.242 70.9746 190.128C70.9746 189.895 71.0006 189.665 71.0516 189.44H73.735V196.162C73.4225 196.213 73.1175 196.24 72.8226 196.24C72.5352 196.24 72.2366 196.213 71.9241 196.162L71.925 190.845Z" fill="#A30046"/>
<path d="M79.3839 194.915C79.8688 194.915 80.2193 194.734 80.4317 194.376C80.644 194.014 80.7497 193.497 80.7497 192.82C80.7497 192.143 80.644 191.626 80.4317 191.266C80.2203 190.906 79.8698 190.727 79.3839 190.727C78.9063 190.727 78.5596 190.906 78.3472 191.266C78.1358 191.626 78.0292 192.143 78.0292 192.82C78.0292 193.497 78.1358 194.014 78.3472 194.376C78.5596 194.734 78.9063 194.915 79.3839 194.915ZM79.3839 196.317C78.8368 196.317 78.3611 196.229 77.9587 196.052C77.5544 195.873 77.2206 195.625 76.9554 195.31C76.6902 194.993 76.49 194.623 76.3564 194.198C76.2211 193.773 76.1543 193.314 76.1543 192.82C76.1543 192.326 76.2201 191.863 76.3564 191.429C76.49 190.995 76.6902 190.623 76.9554 190.304C77.2197 189.987 77.5535 189.74 77.9587 189.557C78.3611 189.374 78.8368 189.284 79.3839 189.284C79.9309 189.284 80.4076 189.374 80.8146 189.557C81.2235 189.739 81.562 189.987 81.8309 190.304C82.1007 190.623 82.2982 190.995 82.4289 191.429C82.5606 191.863 82.6255 192.328 82.6255 192.82C82.6255 193.312 82.5606 193.773 82.4289 194.198C82.2982 194.623 82.1007 194.993 81.8309 195.31C81.562 195.625 81.2235 195.873 80.8146 196.052C80.4076 196.229 79.93 196.317 79.3839 196.317Z" fill="#A30046"/>
<path d="M85.0586 189.439C85.181 189.414 85.3034 189.394 85.4249 189.382C85.5454 189.369 85.6808 189.361 85.8282 189.361C85.9756 189.361 86.1054 189.369 86.2195 189.382C86.3317 189.395 86.4476 189.414 86.5691 189.439C86.5969 189.483 86.621 189.548 86.6423 189.629C86.6636 189.711 86.6831 189.798 86.7017 189.889C86.7174 189.98 86.7323 190.068 86.7462 190.155C86.7582 190.242 86.7694 190.316 86.7768 190.375C86.863 190.245 86.9678 190.115 87.0902 189.985C87.2126 189.856 87.3544 189.738 87.5149 189.634C87.6734 189.531 87.8561 189.446 88.0536 189.381C88.2529 189.318 88.4736 189.284 88.7175 189.284C89.4825 189.284 90.0564 189.492 90.444 189.908C90.8279 190.324 91.0217 190.98 91.0217 191.872V196.162C90.7092 196.213 90.4023 196.24 90.0981 196.24C89.794 196.24 89.4871 196.213 89.1737 196.162V192.365C89.1737 191.897 89.1014 191.537 88.9595 191.288C88.8167 191.035 88.5663 190.908 88.2103 190.908C88.0638 190.908 87.9117 190.931 87.755 190.973C87.6002 191.018 87.4583 191.101 87.3313 191.227C87.2052 191.352 87.1041 191.527 87.0243 191.755C86.9455 191.979 86.9094 192.272 86.9094 192.638V196.161C86.5969 196.212 86.2881 196.239 85.9831 196.239C85.6808 196.239 85.372 196.212 85.0586 196.161V189.439Z" fill="#A30046"/>
<path d="M97.0374 193.08C96.9336 193.064 96.8205 193.048 96.6999 193.035C96.5766 193.022 96.47 193.015 96.3726 193.015C95.9489 193.015 95.6123 193.091 95.3638 193.243C95.1153 193.395 94.9929 193.641 94.9929 193.977C94.9929 194.203 95.0402 194.376 95.1357 194.498C95.233 194.621 95.3471 194.708 95.4825 194.764C95.616 194.821 95.7597 194.854 95.9108 194.868C96.062 194.881 96.1964 194.886 96.3077 194.886C96.4384 194.886 96.5692 194.877 96.6999 194.853C96.8297 194.833 96.9419 194.812 97.0374 194.796V193.08ZM97.0374 191.742C97.0374 191.532 97.0013 191.364 96.9336 191.234C96.865 191.103 96.7685 191.002 96.6461 190.93C96.5247 190.856 96.3745 190.805 96.1983 190.78C96.0193 190.753 95.8237 190.742 95.6049 190.742C95.1357 190.742 94.6377 190.831 94.1092 191.015C93.9868 190.789 93.8969 190.575 93.8357 190.376C93.7745 190.175 93.743 189.938 93.743 189.661C94.1259 189.532 94.507 189.435 94.889 189.374C95.2692 189.314 95.6253 189.284 95.9554 189.284C96.8576 189.284 97.5632 189.5 98.0695 189.933C98.5804 190.367 98.8326 191.062 98.8326 192.014V195.914C98.5275 196.009 98.1603 196.1 97.7264 196.187C97.2924 196.274 96.8028 196.317 96.2558 196.317C95.8126 196.317 95.4073 196.278 95.0365 196.2C94.6693 196.124 94.354 195.991 94.0888 195.811C93.8236 195.629 93.6187 195.395 93.4778 195.109C93.334 194.822 93.2617 194.471 93.2617 194.054C93.2617 193.638 93.3517 193.291 93.5288 193.009C93.7068 192.726 93.9377 192.501 94.2177 192.333C94.5024 192.163 94.8158 192.041 95.1616 191.969C95.5084 191.895 95.8552 191.859 96.2029 191.859C96.4542 191.859 96.7315 191.872 97.0365 191.897V191.741L97.0374 191.742Z" fill="#A30046"/>
<path d="M101.398 186.659C101.709 186.606 102.018 186.581 102.322 186.581C102.617 186.581 102.919 186.606 103.233 186.659V193.484C103.233 193.754 103.248 193.968 103.277 194.133C103.309 194.3 103.356 194.426 103.42 194.517C103.486 194.609 103.571 194.67 103.673 194.705C103.777 194.741 103.909 194.759 104.065 194.759C104.134 194.759 104.21 194.754 104.292 194.744C104.376 194.737 104.456 194.725 104.534 194.705C104.63 195.061 104.676 195.408 104.676 195.745V195.933C104.676 195.99 104.668 196.052 104.65 196.124C104.511 196.166 104.347 196.196 104.15 196.213C103.955 196.232 103.774 196.24 103.609 196.24C102.94 196.24 102.405 196.056 102.002 195.688C101.598 195.318 101.398 194.719 101.398 193.885V186.658V186.659Z" fill="#A30046"/>
<path d="M116.668 194.393C116.781 194.636 116.875 194.887 116.947 195.143C117.022 195.395 117.076 195.655 117.111 195.915C116.659 196.081 116.254 196.188 115.895 196.241C115.533 196.292 115.145 196.318 114.729 196.318C113.991 196.318 113.345 196.201 112.789 195.962C112.234 195.723 111.766 195.389 111.388 194.96C111.011 194.531 110.728 194.021 110.537 193.432C110.345 192.844 110.25 192.203 110.25 191.508C110.25 190.814 110.349 190.172 110.549 189.578C110.749 188.984 111.037 188.472 111.416 188.037C111.792 187.605 112.257 187.267 112.806 187.024C113.357 186.78 113.986 186.659 114.688 186.659C115.104 186.659 115.488 186.686 115.838 186.736C116.192 186.789 116.571 186.898 116.978 187.062C116.961 187.323 116.909 187.576 116.82 187.822C116.734 188.069 116.641 188.319 116.536 188.57C116.233 188.467 115.964 188.393 115.729 188.348C115.494 188.306 115.215 188.283 114.895 188.283C114.062 188.283 113.422 188.556 112.974 189.097C112.529 189.638 112.304 190.44 112.304 191.508C112.304 193.622 113.202 194.682 114.998 194.682C115.32 194.682 115.602 194.659 115.847 194.616C116.089 194.574 116.361 194.5 116.667 194.395L116.668 194.393Z" fill="#A30046"/>
<path d="M122.228 194.915C122.713 194.915 123.064 194.734 123.276 194.376C123.488 194.014 123.595 193.497 123.595 192.82C123.595 192.143 123.489 191.626 123.276 191.266C123.064 190.906 122.713 190.727 122.228 190.727C121.751 190.727 121.403 190.906 121.193 191.266C120.98 191.626 120.873 192.143 120.873 192.82C120.873 193.497 120.979 194.014 121.193 194.376C121.403 194.734 121.751 194.915 122.228 194.915ZM122.228 196.317C121.682 196.317 121.205 196.229 120.802 196.052C120.398 195.873 120.064 195.625 119.8 195.31C119.536 194.993 119.333 194.623 119.2 194.198C119.067 193.773 118.998 193.314 118.998 192.82C118.998 192.326 119.067 191.863 119.2 191.429C119.333 190.995 119.536 190.623 119.8 190.304C120.064 189.987 120.398 189.74 120.802 189.557C121.206 189.374 121.682 189.284 122.228 189.284C122.773 189.284 123.252 189.374 123.66 189.557C124.067 189.739 124.407 189.987 124.676 190.304C124.944 190.623 125.142 190.995 125.273 191.429C125.405 191.863 125.468 192.328 125.468 192.82C125.468 193.312 125.405 193.773 125.273 194.198C125.142 194.623 124.945 194.993 124.676 195.31C124.407 195.625 124.068 195.873 123.66 196.052C123.253 196.229 122.774 196.317 122.228 196.317Z" fill="#A30046"/>
<path d="M127.901 189.439C128.025 189.414 128.146 189.394 128.268 189.382C128.388 189.369 128.523 189.361 128.673 189.361C128.819 189.361 128.948 189.369 129.062 189.382C129.174 189.395 129.292 189.414 129.412 189.439C129.441 189.483 129.465 189.548 129.486 189.629C129.507 189.711 129.528 189.798 129.543 189.889C129.56 189.98 129.574 190.068 129.589 190.155C129.6 190.242 129.612 190.316 129.619 190.375C129.69 190.245 129.783 190.115 129.895 189.985C130.007 189.856 130.142 189.738 130.299 189.634C130.455 189.531 130.63 189.446 130.826 189.381C131.021 189.318 131.24 189.284 131.481 189.284C132.534 189.284 133.205 189.682 133.501 190.481C133.673 190.159 133.919 189.881 134.236 189.642C134.553 189.403 134.953 189.284 135.441 189.284C136.205 189.284 136.769 189.494 137.126 189.915C137.485 190.335 137.666 190.993 137.666 191.885V196.162C137.353 196.213 137.045 196.24 136.743 196.24C136.438 196.24 136.131 196.213 135.817 196.162V192.365C135.817 191.897 135.76 191.537 135.642 191.288C135.526 191.035 135.287 190.908 134.934 190.908C134.785 190.908 134.639 190.931 134.497 190.973C134.354 191.018 134.223 191.098 134.105 191.213C133.988 191.333 133.894 191.496 133.821 191.709C133.747 191.922 133.709 192.195 133.709 192.534V196.162C133.397 196.213 133.087 196.24 132.785 196.24C132.481 196.24 132.173 196.213 131.86 196.162V192.365C131.86 191.897 131.802 191.537 131.686 191.288C131.567 191.035 131.331 190.908 130.974 190.908C130.828 190.908 130.681 190.931 130.532 190.973C130.385 191.018 130.253 191.101 130.135 191.227C130.017 191.352 129.924 191.527 129.858 191.755C129.785 191.979 129.751 192.272 129.751 192.638V196.161C129.44 196.212 129.13 196.239 128.826 196.239C128.523 196.239 128.216 196.212 127.9 196.161V189.438L127.901 189.439Z" fill="#A30046"/>
<path d="M140.321 189.439C140.445 189.414 140.566 189.394 140.687 189.382C140.806 189.369 140.943 189.361 141.091 189.361C141.238 189.361 141.368 189.369 141.482 189.382C141.594 189.395 141.712 189.414 141.832 189.439C141.859 189.483 141.885 189.548 141.904 189.629C141.927 189.711 141.946 189.798 141.963 189.889C141.978 189.98 141.994 190.068 142.007 190.155C142.02 190.242 142.032 190.316 142.039 190.375C142.112 190.245 142.201 190.115 142.313 189.985C142.427 189.856 142.561 189.738 142.718 189.634C142.872 189.531 143.049 189.446 143.243 189.381C143.439 189.318 143.657 189.284 143.9 189.284C144.951 189.284 145.624 189.682 145.92 190.481C146.092 190.159 146.338 189.881 146.655 189.642C146.97 189.403 147.372 189.284 147.86 189.284C148.622 189.284 149.186 189.494 149.544 189.915C149.904 190.335 150.085 190.993 150.085 191.885V196.162C149.772 196.213 149.464 196.24 149.16 196.24C148.857 196.24 148.551 196.213 148.238 196.162V192.365C148.238 191.897 148.179 191.537 148.059 191.288C147.945 191.035 147.706 190.908 147.351 190.908C147.204 190.908 147.058 190.931 146.916 190.973C146.773 191.018 146.642 191.098 146.524 191.213C146.407 191.333 146.313 191.496 146.238 191.709C146.164 191.922 146.128 192.195 146.128 192.534V196.162C145.814 196.213 145.506 196.24 145.204 196.24C144.898 196.24 144.59 196.213 144.281 196.162V192.365C144.281 191.897 144.221 191.537 144.103 191.288C143.986 191.035 143.748 190.908 143.393 190.908C143.245 190.908 143.098 190.931 142.952 190.973C142.803 191.018 142.671 191.101 142.553 191.227C142.437 191.352 142.343 191.527 142.276 191.755C142.205 191.979 142.171 192.272 142.171 192.638V196.161C141.858 196.212 141.55 196.239 141.246 196.239C140.943 196.239 140.634 196.212 140.32 196.161V189.438L140.321 189.439Z" fill="#A30046"/>
<path d="M152.834 188.312C152.779 188.015 152.756 187.726 152.756 187.438C152.756 187.162 152.779 186.873 152.834 186.568C152.981 186.543 153.138 186.523 153.309 186.511C153.478 186.496 153.633 186.491 153.771 186.491C153.917 186.491 154.079 186.497 154.252 186.511C154.427 186.524 154.585 186.543 154.735 186.568C154.76 186.714 154.777 186.86 154.786 187.002C154.793 187.147 154.799 187.291 154.799 187.438C154.799 187.577 154.793 187.721 154.786 187.869C154.777 188.015 154.761 188.162 154.735 188.313C154.585 188.336 154.427 188.352 154.258 188.362C154.09 188.373 153.931 188.376 153.782 188.376C153.645 188.376 153.487 188.373 153.314 188.362C153.139 188.352 152.98 188.337 152.833 188.313L152.834 188.312ZM153.108 190.845H152.235C152.21 190.733 152.19 190.614 152.178 190.487C152.165 190.362 152.158 190.242 152.158 190.128C152.158 189.895 152.183 189.665 152.236 189.44H154.919V196.162C154.605 196.213 154.303 196.24 154.008 196.24C153.722 196.24 153.423 196.213 153.11 196.162V190.845H153.108Z" fill="#A30046"/>
<path d="M159.014 193.236C158.531 193.099 158.149 192.892 157.877 192.619C157.603 192.346 157.468 191.938 157.468 191.391C157.468 190.733 157.705 190.217 158.176 189.843C158.649 189.473 159.296 189.285 160.111 189.285C160.449 189.285 160.785 189.315 161.114 189.375C161.442 189.435 161.775 189.527 162.115 189.649C162.099 189.875 162.056 190.108 161.985 190.352C161.916 190.595 161.832 190.806 161.738 190.988C161.529 190.902 161.299 190.825 161.048 190.762C160.795 190.697 160.532 190.663 160.255 190.663C159.957 190.663 159.727 190.709 159.564 190.801C159.398 190.892 159.315 191.037 159.315 191.236C159.315 191.427 159.372 191.562 159.49 191.638C159.61 191.716 159.777 191.792 159.994 191.861L160.736 192.081C160.978 192.15 161.196 192.235 161.392 192.334C161.586 192.433 161.755 192.558 161.894 192.704C162.031 192.851 162.142 193.031 162.22 193.251C162.296 193.466 162.336 193.732 162.336 194.042C162.336 194.363 162.269 194.663 162.137 194.94C162 195.216 161.806 195.458 161.55 195.663C161.293 195.864 160.981 196.025 160.619 196.142C160.254 196.26 159.84 196.317 159.38 196.317C159.173 196.317 158.981 196.312 158.808 196.298C158.635 196.285 158.468 196.264 158.306 196.235C158.147 196.204 157.987 196.167 157.833 196.125C157.674 196.081 157.506 196.025 157.324 195.954C157.34 195.719 157.382 195.484 157.446 195.245C157.511 195.006 157.598 194.775 157.699 194.549C157.986 194.663 158.258 194.746 158.514 194.804C158.771 194.859 159.037 194.887 159.314 194.887C159.436 194.887 159.569 194.878 159.713 194.854C159.856 194.834 159.988 194.794 160.11 194.737C160.229 194.682 160.334 194.608 160.414 194.516C160.497 194.426 160.539 194.306 160.539 194.158C160.539 193.952 160.476 193.802 160.349 193.712C160.224 193.621 160.048 193.54 159.824 193.471L159.014 193.236Z" fill="#A30046"/>
<path d="M165.695 193.236C165.208 193.099 164.828 192.892 164.555 192.619C164.281 192.346 164.146 191.938 164.146 191.391C164.146 190.733 164.383 190.217 164.856 189.843C165.329 189.473 165.973 189.285 166.788 189.285C167.127 189.285 167.461 189.315 167.792 189.375C168.123 189.435 168.456 189.527 168.793 189.649C168.776 189.875 168.734 190.108 168.664 190.352C168.594 190.595 168.512 190.806 168.416 190.988C168.207 190.902 167.979 190.825 167.726 190.762C167.474 190.697 167.209 190.663 166.931 190.663C166.638 190.663 166.408 190.709 166.243 190.801C166.078 190.892 165.995 191.037 165.995 191.236C165.995 191.427 166.052 191.562 166.172 191.638C166.288 191.716 166.455 191.792 166.671 191.861L167.414 192.081C167.657 192.15 167.876 192.235 168.072 192.334C168.267 192.433 168.434 192.558 168.571 192.704C168.709 192.851 168.82 193.031 168.898 193.251C168.978 193.466 169.016 193.732 169.016 194.042C169.016 194.363 168.947 194.663 168.814 194.94C168.679 195.216 168.483 195.458 168.227 195.663C167.972 195.864 167.661 196.025 167.295 196.142C166.93 196.26 166.519 196.317 166.059 196.317C165.851 196.317 165.659 196.312 165.487 196.298C165.314 196.285 165.147 196.264 164.986 196.235C164.824 196.204 164.667 196.167 164.511 196.125C164.353 196.081 164.186 196.025 164.002 195.954C164.02 195.719 164.061 195.484 164.127 195.245C164.19 195.006 164.275 194.775 164.379 194.549C164.667 194.663 164.938 194.746 165.196 194.804C165.451 194.859 165.717 194.887 165.995 194.887C166.116 194.887 166.246 194.878 166.391 194.854C166.534 194.834 166.667 194.794 166.788 194.737C166.912 194.682 167.013 194.608 167.096 194.516C167.178 194.426 167.219 194.306 167.219 194.158C167.219 193.952 167.156 193.802 167.031 193.712C166.906 193.621 166.729 193.54 166.503 193.471L165.697 193.236H165.695Z" fill="#A30046"/>
<path d="M171.448 188.312C171.394 188.015 171.371 187.726 171.371 187.438C171.371 187.162 171.394 186.873 171.448 186.568C171.597 186.543 171.754 186.523 171.925 186.511C172.094 186.496 172.248 186.491 172.385 186.491C172.533 186.491 172.693 186.497 172.868 186.511C173.041 186.524 173.201 186.543 173.35 186.568C173.375 186.714 173.392 186.86 173.401 187.002C173.411 187.147 173.414 187.291 173.414 187.438C173.414 187.577 173.411 187.721 173.401 187.869C173.392 188.015 173.376 188.162 173.35 188.313C173.202 188.336 173.042 188.352 172.874 188.362C172.705 188.373 172.546 188.376 172.397 188.376C172.26 188.376 172.104 188.373 171.93 188.362C171.756 188.352 171.597 188.336 171.448 188.312ZM171.722 190.845H170.849C170.824 190.733 170.804 190.614 170.792 190.487C170.779 190.362 170.773 190.242 170.773 190.128C170.773 189.895 170.798 189.665 170.849 189.44H173.532V196.162C173.22 196.213 172.914 196.24 172.62 196.24C172.333 196.24 172.034 196.213 171.723 196.162L171.722 190.845Z" fill="#A30046"/>
<path d="M179.182 194.915C179.667 194.915 180.016 194.734 180.23 194.376C180.441 194.014 180.548 193.497 180.548 192.82C180.548 192.143 180.441 191.626 180.23 191.266C180.017 190.906 179.668 190.727 179.182 190.727C178.703 190.727 178.361 190.906 178.146 191.266C177.935 191.626 177.827 192.143 177.827 192.82C177.827 193.497 177.934 194.014 178.146 194.376C178.361 194.734 178.704 194.915 179.182 194.915ZM179.182 196.317C178.635 196.317 178.159 196.229 177.757 196.052C177.351 195.873 177.019 195.625 176.755 195.31C176.491 194.993 176.288 194.623 176.154 194.198C176.022 193.773 175.953 193.314 175.953 192.82C175.953 192.326 176.022 191.863 176.154 191.429C176.288 190.995 176.491 190.623 176.755 190.304C177.019 189.987 177.351 189.74 177.757 189.557C178.159 189.374 178.635 189.284 179.182 189.284C179.729 189.284 180.206 189.374 180.613 189.557C181.02 189.739 181.359 189.987 181.631 190.304C181.899 190.623 182.096 190.995 182.23 191.429C182.359 191.863 182.423 192.328 182.423 192.82C182.423 193.312 182.359 193.773 182.23 194.198C182.096 194.623 181.899 194.993 181.631 195.31C181.359 195.625 181.021 195.873 180.613 196.052C180.207 196.229 179.727 196.317 179.182 196.317Z" fill="#A30046"/>
<path d="M184.855 189.439C184.979 189.414 185.1 189.394 185.223 189.382C185.342 189.369 185.476 189.361 185.625 189.361C185.772 189.361 185.902 189.369 186.016 189.382C186.127 189.395 186.246 189.414 186.366 189.439C186.393 189.483 186.417 189.548 186.438 189.629C186.46 189.711 186.48 189.798 186.498 189.889C186.514 189.98 186.528 190.068 186.543 190.155C186.558 190.242 186.566 190.316 186.574 190.375C186.663 190.245 186.767 190.115 186.885 189.985C187.009 189.856 187.149 189.738 187.311 189.634C187.47 189.531 187.651 189.446 187.85 189.381C188.052 189.318 188.271 189.284 188.515 189.284C189.277 189.284 189.853 189.492 190.239 189.908C190.625 190.324 190.819 190.98 190.819 191.872V196.162C190.507 196.213 190.199 196.24 189.893 196.24C189.593 196.24 189.283 196.213 188.97 196.162V192.365C188.97 191.897 188.899 191.537 188.756 191.288C188.614 191.035 188.363 190.908 188.006 190.908C187.86 190.908 187.708 190.931 187.552 190.973C187.396 191.018 187.255 191.101 187.128 191.227C187.003 191.352 186.9 191.527 186.822 191.755C186.746 191.979 186.706 192.272 186.706 192.638V196.161C186.393 196.212 186.085 196.239 185.781 196.239C185.477 196.239 185.169 196.212 184.855 196.161V189.439Z" fill="#A30046"/>
<path d="M1.13309 206.446H0.0658341C0.0389441 206.307 0.0222538 206.182 0.0139086 206.068C0.0046362 205.956 0 205.838 0 205.717C0 205.605 0.0046362 205.497 0.0139086 205.393C0.0222538 205.288 0.0389441 205.173 0.0658341 205.042H1.13309V204.715C1.13309 204.301 1.19521 203.93 1.32132 203.605C1.44742 203.281 1.62731 203.007 1.8619 202.786C2.09649 202.565 2.37652 202.397 2.70105 202.279C3.02651 202.161 3.38536 202.104 3.77572 202.104C4.03535 202.104 4.25418 202.115 4.43314 202.136C4.61024 202.158 4.80403 202.199 5.01174 202.26C4.99412 202.545 4.9663 202.804 4.92736 203.034C4.88749 203.263 4.82443 203.491 4.7382 203.715C4.64269 203.699 4.54348 203.679 4.4387 203.658C4.33392 203.637 4.19576 203.625 4.02237 203.625C3.71824 203.625 3.47066 203.698 3.27965 203.84C3.08864 203.981 2.98479 204.287 2.96717 204.755V205.042H4.52957C4.55646 205.179 4.57315 205.306 4.58242 205.418C4.5917 205.53 4.5954 205.648 4.5954 205.769C4.5954 205.881 4.59077 205.989 4.58242 206.095C4.57408 206.198 4.55646 206.315 4.52957 206.446H2.96717V211.763C2.65562 211.816 2.35148 211.841 2.05662 211.841C1.75248 211.841 1.44464 211.816 1.13216 211.763V206.446H1.13309Z" fill="#A30046"/>
<path d="M9.28334 210.513C9.76921 210.513 10.1188 210.334 10.3311 209.974C10.5435 209.614 10.6492 209.097 10.6492 208.422C10.6492 207.747 10.5435 207.227 10.3311 206.868C10.1188 206.508 9.76921 206.329 9.28334 206.329C8.80488 206.329 8.46088 206.508 8.24854 206.868C8.03527 207.227 7.92957 207.745 7.92957 208.422C7.92957 209.099 8.03527 209.614 8.24854 209.974C8.46088 210.334 8.80488 210.513 9.28334 210.513ZM9.28334 211.918C8.73627 211.918 8.26059 211.83 7.85817 211.653C7.45482 211.474 7.12009 211.228 6.8549 210.911C6.59063 210.594 6.39035 210.224 6.2559 209.801C6.12052 209.376 6.05469 208.916 6.05469 208.423C6.05469 207.929 6.12145 207.465 6.2559 207.03C6.39035 206.596 6.59063 206.224 6.8549 205.905C7.12009 205.59 7.45389 205.341 7.85817 205.158C8.26059 204.976 8.73627 204.885 9.28334 204.885C9.83041 204.885 10.3079 204.976 10.715 205.158C11.123 205.34 11.4614 205.59 11.7303 205.905C11.9983 206.224 12.1986 206.596 12.3293 207.03C12.4582 207.465 12.525 207.928 12.525 208.423C12.525 208.918 12.4591 209.376 12.3293 209.801C12.1977 210.224 11.9983 210.594 11.7303 210.911C11.4605 211.228 11.1221 211.473 10.715 211.653C10.307 211.83 9.82948 211.918 9.28334 211.918Z" fill="#A30046"/>
<path d="M14.959 205.042C15.0897 205.015 15.213 204.995 15.3299 204.983C15.4476 204.97 15.5747 204.962 15.7147 204.962C15.8445 204.962 15.9734 204.972 16.0976 204.987C16.2247 205.008 16.3471 205.027 16.4704 205.054C16.4954 205.098 16.5195 205.161 16.5409 205.242C16.5622 205.323 16.5817 205.412 16.5993 205.502C16.6169 205.593 16.6327 205.683 16.6456 205.775C16.6586 205.866 16.6688 205.942 16.6781 206.001C16.8691 205.734 17.1028 205.493 17.3809 205.282C17.6582 205.069 18.0059 204.961 18.4222 204.961C18.5094 204.961 18.6095 204.967 18.7217 204.974C18.8349 204.984 18.9174 204.997 18.9693 205.014C18.9869 205.101 19.0008 205.2 19.0092 205.314C19.0166 205.426 19.0222 205.544 19.0222 205.665C19.0222 205.811 19.0157 205.973 19.0027 206.145C18.9897 206.321 18.9656 206.485 18.9313 206.64C18.8358 206.622 18.7301 206.613 18.6123 206.613H18.3981C18.2507 206.613 18.0856 206.63 17.903 206.659C17.7212 206.689 17.5478 206.769 17.3828 206.901C17.2177 207.03 17.0805 207.225 16.973 207.486C16.8645 207.746 16.8107 208.11 16.8107 208.578V211.776C16.6549 211.801 16.4982 211.817 16.3415 211.828C16.1857 211.836 16.0337 211.841 15.8862 211.841C15.7379 211.841 15.5886 211.836 15.4374 211.828C15.2844 211.817 15.1268 211.802 14.9618 211.776V205.042H14.959Z" fill="#A30046"/>
<path d="M25.0078 202.416C25.3286 202.361 25.6458 202.336 25.9582 202.336C26.2707 202.336 26.5915 202.361 26.9216 202.416V206.082H30.0585V202.416C30.3793 202.361 30.6964 202.336 31.0089 202.336C31.3214 202.336 31.6431 202.361 31.9723 202.416V211.763C31.6431 211.816 31.3251 211.841 31.0219 211.841C30.7011 211.841 30.3793 211.816 30.0585 211.763V207.721H26.9216V211.763C26.5925 211.816 26.2744 211.841 25.9712 211.841C25.6504 211.841 25.3286 211.816 25.0078 211.763V202.416Z" fill="#A30046"/>
<path d="M38.8864 207.679C38.8679 207.264 38.7538 206.928 38.5406 206.674C38.3273 206.417 38.0306 206.289 37.6495 206.289C37.2156 206.289 36.8855 206.41 36.6611 206.654C36.4348 206.897 36.3004 207.239 36.2568 207.68H38.8874L38.8864 207.679ZM36.2429 208.968C36.2781 209.488 36.4599 209.864 36.7899 210.099C37.1191 210.332 37.5531 210.45 38.0909 210.45C38.3857 210.45 38.688 210.423 38.9959 210.365C39.3046 210.308 39.5967 210.227 39.8749 210.124C39.9704 210.298 40.0529 210.507 40.1225 210.748C40.1911 210.991 40.2309 211.251 40.2393 211.528C39.5624 211.788 38.7993 211.919 37.9481 211.919C37.3231 211.919 36.7881 211.831 36.3412 211.66C35.8933 211.484 35.5289 211.246 35.247 210.937C34.9651 210.63 34.7565 210.265 34.6221 209.84C34.4876 209.415 34.4199 208.952 34.4199 208.449C34.4199 207.955 34.4895 207.492 34.6286 207.058C34.7667 206.624 34.9744 206.248 35.247 205.926C35.5196 205.605 35.8599 205.352 36.2623 205.166C36.6657 204.98 37.1367 204.886 37.6755 204.886C38.1437 204.886 38.561 204.969 38.9245 205.134C39.2898 205.299 39.5986 205.523 39.8554 205.809C40.1113 206.096 40.3033 206.437 40.434 206.83C40.5657 207.223 40.6297 207.648 40.6297 208.098C40.6297 208.263 40.6241 208.426 40.6102 208.584C40.5972 208.745 40.5814 208.873 40.5657 208.969H36.2419L36.2429 208.968Z" fill="#A30046"/>
<path d="M46.4222 208.683C46.3174 208.663 46.2052 208.651 46.0838 208.636C45.9623 208.623 45.8538 208.616 45.7583 208.616C45.3336 208.616 44.997 208.694 44.7495 208.844C44.5019 208.996 44.3786 209.242 44.3786 209.579C44.3786 209.803 44.4268 209.979 44.5214 210.099C44.6178 210.22 44.7318 210.309 44.8672 210.365C45.0017 210.422 45.1445 210.457 45.2965 210.469C45.4486 210.482 45.5803 210.488 45.6934 210.488C45.8241 210.488 45.954 210.477 46.0838 210.457C46.2145 210.436 46.3276 210.416 46.4222 210.397V208.683ZM46.4222 207.343C46.4222 207.135 46.3879 206.965 46.3174 206.835C46.2488 206.706 46.1524 206.603 46.0309 206.529C45.9094 206.457 45.7592 206.406 45.5831 206.381C45.405 206.356 45.2075 206.343 44.9905 206.343C44.5214 206.343 44.0216 206.434 43.4931 206.614C43.3716 206.39 43.2807 206.178 43.2195 205.977C43.1592 205.778 43.1296 205.539 43.1296 205.262C43.5107 205.133 43.8918 205.038 44.2747 204.976C44.6558 204.916 45.0119 204.885 45.341 204.885C46.2442 204.885 46.9489 205.101 47.457 205.534C47.9642 205.968 48.2183 206.663 48.2183 207.614V211.515C47.9151 211.611 47.546 211.703 47.1121 211.788C46.6791 211.875 46.1876 211.918 45.6415 211.918C45.1983 211.918 44.7921 211.879 44.4231 211.801C44.054 211.723 43.7378 211.593 43.4727 211.412C43.2075 211.23 43.0035 210.996 42.8607 210.708C42.7179 210.424 42.6465 210.073 42.6465 209.655C42.6465 209.241 42.7355 208.891 42.9135 208.61C43.0916 208.328 43.3206 208.102 43.6034 207.934C43.8853 207.764 44.2005 207.645 44.5473 207.57C44.8941 207.496 45.2418 207.46 45.5895 207.46C45.8408 207.46 46.1181 207.473 46.4222 207.498V207.343Z" fill="#A30046"/>
<path d="M50.7831 202.258C51.0956 202.206 51.4034 202.181 51.7066 202.181C52.0024 202.181 52.3066 202.206 52.619 202.258V209.084C52.619 209.351 52.6339 209.57 52.6645 209.733C52.6951 209.9 52.7424 210.026 52.8063 210.118C52.8722 210.209 52.9575 210.27 53.0613 210.306C53.1652 210.34 53.2959 210.359 53.4508 210.359C53.5203 210.359 53.5964 210.351 53.6789 210.346C53.7614 210.337 53.8411 210.325 53.92 210.306C54.0145 210.661 54.0628 211.008 54.0628 211.346V211.534C54.0628 211.591 54.0544 211.653 54.0368 211.722C53.8977 211.765 53.7317 211.796 53.5352 211.815C53.3395 211.83 53.1596 211.84 52.9946 211.84C52.327 211.84 51.791 211.655 51.3867 211.286C50.9825 210.918 50.7812 210.318 50.7812 209.487V202.258L50.7831 202.258Z" fill="#A30046"/>
<path d="M56.2123 206.446H55.3657L55.3008 206.186L57.7357 203.078H58.0343V205.042H59.6097C59.6356 205.173 59.6523 205.288 59.6616 205.393C59.6699 205.496 59.6755 205.605 59.6755 205.717C59.6755 205.838 59.6699 205.956 59.6616 206.068C59.6533 206.182 59.6356 206.307 59.6097 206.446H58.0343V209.085C58.0343 209.353 58.0556 209.571 58.1001 209.734C58.1418 209.901 58.2049 210.03 58.2884 210.125C58.3699 210.22 58.4738 210.286 58.5943 210.32C58.7158 210.353 58.8595 210.373 59.0246 210.373C59.1535 210.373 59.2814 210.362 59.4085 210.341C59.5336 210.319 59.6449 210.299 59.7404 210.281C59.8007 210.446 59.8443 210.617 59.8702 210.795C59.8962 210.974 59.9092 211.131 59.9092 211.271C59.9092 211.367 59.9073 211.447 59.9036 211.512C59.899 211.575 59.8925 211.639 59.8841 211.7C59.4854 211.796 59.0728 211.843 58.6472 211.843C57.8563 211.843 57.2536 211.658 56.8372 211.289C56.4209 210.921 56.2123 210.321 56.2123 209.49V206.448V206.446Z" fill="#A30046"/>
<path d="M61.9668 202.259C62.1142 202.234 62.2663 202.215 62.4211 202.206C62.5788 202.198 62.729 202.193 62.8783 202.193C63.0257 202.193 63.1759 202.198 63.3345 202.206C63.4893 202.215 63.646 202.233 63.8018 202.259V205.834C63.863 205.754 63.9427 205.663 64.0438 205.553C64.144 205.445 64.2691 205.342 64.4147 205.242C64.564 205.141 64.7402 205.056 64.9479 204.987C65.1565 204.919 65.3939 204.885 65.6637 204.885C66.4111 204.885 66.9767 205.093 67.3643 205.509C67.75 205.925 67.9419 206.579 67.9419 207.473V211.776C67.7871 211.801 67.6295 211.817 67.4746 211.829C67.3179 211.836 67.1658 211.842 67.0193 211.842C66.8728 211.842 66.7189 211.836 66.5631 211.829C66.4074 211.817 66.2506 211.802 66.0949 211.776V207.967C66.0949 207.499 66.0198 207.14 65.8723 206.888C65.7258 206.636 65.4727 206.512 65.1166 206.512C64.9692 206.512 64.8181 206.534 64.6614 206.575C64.5056 206.62 64.3637 206.703 64.2376 206.829C64.1134 206.956 64.0086 207.131 63.9261 207.355C63.8426 207.581 63.8018 207.876 63.8018 208.24V211.775C63.646 211.8 63.4893 211.817 63.3345 211.828C63.1759 211.835 63.0257 211.841 62.8783 211.841C62.7299 211.841 62.5806 211.835 62.4295 211.828C62.2765 211.817 62.1235 211.801 61.9677 211.775L61.9668 202.259Z" fill="#A30046"/>
<path d="M74.4375 202.416H79.7487C79.8007 202.674 79.8276 202.94 79.8276 203.208C79.8276 203.494 79.8007 203.767 79.7487 204.027H76.3374V206.056H79.0459C79.0978 206.331 79.1228 206.602 79.1228 206.861C79.1228 207.139 79.0969 207.411 79.0459 207.678H76.3374V210.151H79.8405C79.8925 210.409 79.9175 210.673 79.9175 210.942C79.9175 211.228 79.8925 211.501 79.8405 211.762H74.4375V202.415V202.416Z" fill="#A30046"/>
<path d="M86.3609 206.433C86.1885 206.389 86.0466 206.361 85.939 206.348C85.8306 206.335 85.6924 206.329 85.5301 206.329C85.2427 206.329 84.9942 206.386 84.7809 206.503C84.5667 206.621 84.3924 206.776 84.2524 206.972C84.1152 207.167 84.0122 207.397 83.9473 207.661C83.8824 207.925 83.85 208.2 83.85 208.488C83.85 208.842 83.8926 209.144 83.9789 209.39C84.0651 209.637 84.1856 209.835 84.3395 209.982C84.4907 210.129 84.6696 210.235 84.8783 210.301C85.0869 210.366 85.3132 210.398 85.557 210.398C85.7035 210.398 85.838 210.391 85.9594 210.379C86.0809 210.366 86.2154 210.339 86.3628 210.293V206.434L86.3609 206.433ZM86.3609 202.259C86.5186 202.234 86.6716 202.215 86.8236 202.206C86.9766 202.198 87.1259 202.193 87.2733 202.193C87.4208 202.193 87.5719 202.198 87.7295 202.206C87.8844 202.215 88.0411 202.233 88.1969 202.259V211.542C87.7907 211.663 87.3753 211.757 86.9544 211.818C86.5343 211.885 86.0234 211.917 85.4253 211.917C84.9654 211.917 84.5241 211.856 84.1022 211.73C83.6821 211.605 83.3103 211.404 82.9895 211.131C82.6687 210.858 82.4155 210.507 82.2291 210.073C82.0418 209.639 81.9473 209.111 81.9473 208.487C81.9473 207.991 82.0279 207.527 82.1893 207.089C82.3488 206.649 82.5796 206.271 82.8801 205.951C83.1768 205.629 83.5393 205.376 83.9659 205.19C84.3905 205.004 84.8634 204.91 85.3855 204.91C85.5403 204.91 85.7044 204.917 85.8732 204.931C86.042 204.942 86.2042 204.971 86.36 205.014L86.3609 202.259Z" fill="#A30046"/>
<path d="M90.8398 205.042C91.1523 204.987 91.4583 204.962 91.7643 204.962C92.0675 204.962 92.3763 204.987 92.6878 205.042V208.603C92.6878 208.958 92.7157 209.251 92.7731 209.48C92.8288 209.71 92.9159 209.892 93.0337 210.027C93.1496 210.161 93.2952 210.256 93.4676 210.313C93.6438 210.369 93.846 210.398 94.0815 210.398C94.4023 210.398 94.6712 210.367 94.8882 210.307V205.042C95.1988 204.987 95.5048 204.962 95.7987 204.962C96.101 204.962 96.4107 204.987 96.7223 205.042V211.503C96.445 211.599 96.0778 211.691 95.6225 211.781C95.1682 211.874 94.6925 211.918 94.1974 211.918C93.7551 211.918 93.3304 211.884 92.9224 211.816C92.5154 211.747 92.1547 211.599 91.8487 211.372C91.5399 211.148 91.2942 210.816 91.1143 210.385C90.9307 209.951 90.8408 209.376 90.8408 208.654V205.043L90.8398 205.042Z" fill="#A30046"/>
<path d="M103.897 210.177C104.001 210.351 104.088 210.551 104.158 210.78C104.227 211.01 104.262 211.281 104.262 211.593C103.914 211.731 103.587 211.818 103.285 211.858C102.981 211.898 102.664 211.918 102.334 211.918C101.77 211.918 101.279 211.83 100.863 211.653C100.448 211.474 100.103 211.23 99.83 210.918C99.5546 210.605 99.3497 210.235 99.2097 209.806C99.0715 209.376 99.002 208.911 99.002 208.408C99.002 207.916 99.0678 207.455 99.205 207.03C99.3376 206.607 99.5425 206.233 99.8151 205.913C100.089 205.592 100.429 205.341 100.837 205.158C101.244 204.976 101.718 204.885 102.257 204.885C102.447 204.885 102.62 204.89 102.782 204.898C102.945 204.907 103.097 204.925 103.245 204.951C103.392 204.976 103.54 205.012 103.686 205.055C103.834 205.099 103.999 205.154 104.182 205.224C104.182 205.423 104.156 205.645 104.103 205.893C104.052 206.141 103.969 206.377 103.855 206.604C103.596 206.515 103.368 206.458 103.173 206.427C102.977 206.397 102.755 206.382 102.5 206.382C101.964 206.382 101.556 206.557 101.285 206.908C101.011 207.261 100.876 207.76 100.876 208.409C100.876 209.113 101.023 209.623 101.317 209.942C101.613 210.265 102.011 210.425 102.514 210.425C102.644 210.425 102.764 210.423 102.871 210.417C102.981 210.412 103.087 210.403 103.191 210.385C103.298 210.367 103.403 210.342 103.512 210.307C103.62 210.271 103.748 210.228 103.895 210.177H103.897Z" fill="#A30046"/>
<path d="M109.898 208.683C109.793 208.663 109.681 208.651 109.559 208.636C109.437 208.623 109.33 208.616 109.232 208.616C108.808 208.616 108.472 208.694 108.224 208.844C107.977 208.996 107.853 209.242 107.853 209.579C107.853 209.803 107.903 209.979 107.996 210.099C108.092 210.22 108.208 210.309 108.343 210.365C108.476 210.422 108.62 210.457 108.771 210.469C108.922 210.482 109.057 210.488 109.168 210.488C109.299 210.488 109.43 210.477 109.559 210.457C109.689 210.436 109.802 210.416 109.898 210.397V208.683ZM109.898 207.343C109.898 207.135 109.862 206.965 109.793 206.835C109.725 206.706 109.628 206.603 109.507 206.529C109.387 206.457 109.236 206.406 109.059 206.381C108.881 206.356 108.683 206.343 108.468 206.343C107.997 206.343 107.497 206.434 106.971 206.614C106.847 206.39 106.757 206.178 106.696 205.977C106.636 205.778 106.605 205.539 106.605 205.262C106.987 205.133 107.368 205.038 107.749 204.976C108.132 204.916 108.489 204.885 108.816 204.885C109.721 204.885 110.425 205.101 110.933 205.534C111.441 205.968 111.694 206.663 111.694 207.614V211.515C111.389 211.611 111.021 211.703 110.588 211.788C110.152 211.875 109.663 211.918 109.117 211.918C108.675 211.918 108.268 211.879 107.901 211.801C107.532 211.723 107.215 211.593 106.95 211.412C106.684 211.23 106.481 210.996 106.338 210.708C106.195 210.424 106.125 210.073 106.125 209.655C106.125 209.241 106.213 208.891 106.389 208.61C106.569 208.328 106.797 208.102 107.08 207.934C107.363 207.764 107.677 207.645 108.023 207.57C108.371 207.496 108.719 207.46 109.065 207.46C109.317 207.46 109.596 207.473 109.899 207.498V207.342L109.898 207.343Z" fill="#A30046"/>
<path d="M114.495 206.446H113.648L113.584 206.186L116.02 203.078H116.318V205.042H117.893C117.92 205.173 117.936 205.288 117.946 205.393C117.953 205.496 117.96 205.605 117.96 205.717C117.96 205.838 117.953 205.956 117.946 206.068C117.936 206.182 117.921 206.307 117.893 206.446H116.318V209.085C116.318 209.353 116.339 209.571 116.382 209.734C116.426 209.901 116.489 210.03 116.571 210.125C116.654 210.22 116.754 210.286 116.878 210.32C117 210.353 117.141 210.373 117.307 210.373C117.438 210.373 117.566 210.362 117.692 210.341C117.818 210.319 117.927 210.299 118.023 210.281C118.082 210.446 118.127 210.617 118.152 210.795C118.179 210.974 118.193 211.131 118.193 211.271C118.193 211.367 118.191 211.447 118.184 211.512C118.18 211.575 118.175 211.639 118.165 211.7C117.765 211.796 117.355 211.843 116.929 211.843C116.139 211.843 115.536 211.658 115.119 211.289C114.703 210.921 114.495 210.321 114.495 209.49V206.448L114.495 206.446Z" fill="#A30046"/>
<path d="M120.365 203.91C120.312 203.616 120.286 203.324 120.286 203.04C120.286 202.761 120.312 202.47 120.365 202.168C120.514 202.143 120.67 202.121 120.839 202.108C121.011 202.095 121.165 202.089 121.303 202.089C121.45 202.089 121.61 202.096 121.785 202.108C121.957 202.121 122.115 202.143 122.267 202.168C122.293 202.315 122.311 202.459 122.316 202.605C122.325 202.745 122.332 202.894 122.332 203.041C122.332 203.178 122.325 203.321 122.316 203.469C122.311 203.616 122.294 203.764 122.267 203.911C122.116 203.936 121.96 203.955 121.79 203.964C121.622 203.973 121.463 203.977 121.315 203.977C121.176 203.977 121.02 203.973 120.847 203.964C120.672 203.955 120.514 203.937 120.365 203.911V203.91ZM120.638 206.446H119.765C119.739 206.332 119.72 206.214 119.707 206.087C119.695 205.962 119.688 205.843 119.688 205.729C119.688 205.496 119.716 205.266 119.766 205.042H122.448V211.763C122.135 211.815 121.832 211.84 121.538 211.84C121.252 211.84 120.951 211.815 120.64 211.763V206.446H120.638Z" fill="#A30046"/>
<path d="M128.1 210.513C128.583 210.513 128.93 210.334 129.147 209.974C129.358 209.614 129.464 209.097 129.464 208.422C129.464 207.747 129.359 207.227 129.147 206.868C128.931 206.508 128.584 206.329 128.1 206.329C127.621 206.329 127.275 206.508 127.062 206.868C126.851 207.227 126.745 207.745 126.745 208.422C126.745 209.099 126.85 209.614 127.062 209.974C127.275 210.334 127.622 210.513 128.1 210.513ZM128.1 211.918C127.549 211.918 127.076 211.83 126.671 211.653C126.268 211.474 125.934 211.228 125.669 210.911C125.405 210.594 125.206 210.224 125.072 209.801C124.937 209.376 124.869 208.916 124.869 208.423C124.869 207.929 124.936 207.465 125.072 207.03C125.206 206.596 125.405 206.224 125.669 205.905C125.934 205.59 126.268 205.341 126.671 205.158C127.076 204.976 127.549 204.885 128.1 204.885C128.645 204.885 129.121 204.976 129.53 205.158C129.937 205.34 130.277 205.59 130.545 205.905C130.813 206.224 131.014 206.596 131.144 207.03C131.276 207.465 131.339 207.928 131.339 208.423C131.339 208.918 131.276 209.376 131.144 209.801C131.013 210.224 130.813 210.594 130.545 210.911C130.277 211.228 129.938 211.473 129.53 211.653C129.121 211.83 128.645 211.918 128.1 211.918Z" fill="#A30046"/>
<path d="M133.773 205.042C133.895 205.015 134.018 204.995 134.138 204.983C134.259 204.97 134.395 204.963 134.542 204.963C134.69 204.963 134.821 204.97 134.933 204.983C135.046 204.996 135.163 205.015 135.283 205.042C135.308 205.086 135.336 205.149 135.355 205.23C135.378 205.312 135.397 205.401 135.413 205.488C135.43 205.581 135.447 205.669 135.462 205.754C135.473 205.843 135.483 205.915 135.491 205.976C135.578 205.846 135.683 205.716 135.804 205.588C135.926 205.455 136.068 205.339 136.226 205.235C136.389 205.132 136.57 205.047 136.768 204.982C136.969 204.917 137.188 204.885 137.43 204.885C138.195 204.885 138.77 205.093 139.154 205.509C139.544 205.925 139.736 206.579 139.736 207.473V211.763C139.424 211.816 139.114 211.841 138.812 211.841C138.506 211.841 138.202 211.816 137.887 211.763V207.966C137.887 207.498 137.814 207.14 137.673 206.887C137.531 206.635 137.28 206.511 136.925 206.511C136.777 206.511 136.625 206.533 136.469 206.574C136.311 206.619 136.172 206.702 136.047 206.828C135.92 206.955 135.817 207.13 135.739 207.354C135.661 207.58 135.623 207.875 135.623 208.239V211.762C135.308 211.815 135.002 211.84 134.698 211.84C134.396 211.84 134.088 211.815 133.774 211.762V205.041L133.773 205.042Z" fill="#A30046"/>
<path d="M152.416 209.994C152.527 210.237 152.621 210.486 152.695 210.743C152.77 210.998 152.824 211.255 152.859 211.515C152.406 211.68 152.002 211.789 151.642 211.841C151.28 211.892 150.892 211.919 150.478 211.919C149.739 211.919 149.09 211.8 148.536 211.561C147.98 211.324 147.514 210.989 147.138 210.561C146.759 210.13 146.473 209.622 146.285 209.035C146.093 208.445 145.998 207.803 145.998 207.109C145.998 206.414 146.095 205.772 146.297 205.179C146.496 204.585 146.783 204.072 147.163 203.638C147.539 203.206 148.005 202.866 148.555 202.625C149.108 202.382 149.733 202.259 150.435 202.259C150.853 202.259 151.235 202.284 151.588 202.337C151.94 202.39 152.32 202.498 152.727 202.663C152.711 202.921 152.658 203.177 152.571 203.424C152.482 203.67 152.389 203.92 152.285 204.171C151.982 204.067 151.713 203.995 151.477 203.949C151.243 203.906 150.966 203.886 150.644 203.886C149.812 203.886 149.17 204.158 148.725 204.698C148.278 205.241 148.055 206.044 148.055 207.109C148.055 209.224 148.953 210.281 150.747 210.281C151.07 210.281 151.352 210.26 151.593 210.216C151.838 210.173 152.111 210.1 152.415 209.996L152.416 209.994Z" fill="#A30046"/>
<path d="M155.253 205.042C155.384 205.015 155.506 204.995 155.624 204.983C155.742 204.97 155.87 204.962 156.008 204.962C156.138 204.962 156.266 204.972 156.393 204.987C156.52 205.008 156.641 205.027 156.761 205.054C156.789 205.098 156.813 205.161 156.835 205.242C156.858 205.323 156.876 205.412 156.894 205.502C156.909 205.593 156.923 205.683 156.938 205.775C156.953 205.866 156.963 205.942 156.97 206.001C157.162 205.734 157.396 205.493 157.673 205.282C157.952 205.069 158.298 204.961 158.716 204.961C158.801 204.961 158.902 204.967 159.013 204.974C159.129 204.984 159.21 204.997 159.261 205.014C159.279 205.101 159.292 205.2 159.301 205.314C159.31 205.426 159.314 205.544 159.314 205.665C159.314 205.811 159.309 205.973 159.296 206.145C159.281 206.321 159.259 206.485 159.223 206.64C159.129 206.622 159.022 206.613 158.904 206.613H158.691C158.543 206.613 158.378 206.63 158.195 206.659C158.012 206.689 157.84 206.769 157.673 206.901C157.51 207.03 157.373 207.225 157.262 207.486C157.154 207.746 157.101 208.11 157.101 208.578V211.776C156.945 211.801 156.789 211.817 156.632 211.828C156.478 211.836 156.326 211.841 156.175 211.841C156.031 211.841 155.881 211.836 155.729 211.828C155.578 211.817 155.417 211.802 155.252 211.776V205.042H155.253Z" fill="#A30046"/>
<path d="M165.382 207.679C165.365 207.264 165.247 206.928 165.036 206.674C164.823 206.417 164.527 206.289 164.145 206.289C163.712 206.289 163.381 206.41 163.156 206.654C162.93 206.897 162.796 207.239 162.753 207.68H165.383L165.382 207.679ZM162.74 208.968C162.774 209.488 162.957 209.864 163.285 210.099C163.616 210.332 164.051 210.45 164.589 210.45C164.883 210.45 165.185 210.423 165.493 210.365C165.801 210.308 166.094 210.227 166.371 210.124C166.468 210.298 166.548 210.507 166.619 210.748C166.688 210.991 166.728 211.251 166.735 211.528C166.059 211.788 165.297 211.919 164.444 211.919C163.819 211.919 163.283 211.831 162.838 211.66C162.391 211.484 162.027 211.246 161.746 210.937C161.459 210.63 161.254 210.265 161.119 209.84C160.985 209.415 160.916 208.952 160.916 208.449C160.916 207.955 160.985 207.492 161.127 207.058C161.266 206.624 161.472 206.248 161.746 205.926C162.018 205.605 162.356 205.352 162.76 205.166C163.164 204.98 163.633 204.886 164.172 204.886C164.64 204.886 165.058 204.969 165.422 205.134C165.785 205.299 166.096 205.523 166.352 205.809C166.606 206.096 166.802 206.437 166.931 206.83C167.062 207.223 167.127 207.648 167.127 208.098C167.127 208.263 167.121 208.426 167.107 208.584C167.096 208.745 167.082 208.873 167.062 208.969H162.741L162.74 208.968Z" fill="#A30046"/>
<path d="M173.597 206.433C173.424 206.389 173.282 206.361 173.173 206.348C173.067 206.335 172.93 206.329 172.764 206.329C172.478 206.329 172.227 206.386 172.016 206.503C171.805 206.621 171.625 206.776 171.49 206.972C171.349 207.167 171.248 207.397 171.182 207.661C171.117 207.925 171.086 208.2 171.086 208.488C171.086 208.842 171.13 209.144 171.217 209.39C171.302 209.637 171.422 209.835 171.574 209.982C171.724 210.129 171.907 210.235 172.115 210.301C172.322 210.366 172.548 210.398 172.79 210.398C172.937 210.398 173.071 210.391 173.193 210.379C173.316 210.366 173.45 210.339 173.598 210.293V206.434L173.597 206.433ZM173.597 202.259C173.753 202.234 173.907 202.215 174.059 202.206C174.211 202.198 174.359 202.193 174.508 202.193C174.654 202.193 174.808 202.198 174.962 202.206C175.12 202.215 175.277 202.233 175.431 202.259V211.542C175.026 211.663 174.609 211.757 174.189 211.818C173.769 211.885 173.258 211.917 172.661 211.917C172.199 211.917 171.76 211.856 171.338 211.73C170.917 211.605 170.547 211.404 170.225 211.131C169.904 210.858 169.651 210.507 169.464 210.073C169.278 209.639 169.182 209.111 169.182 208.487C169.182 207.991 169.263 207.527 169.425 207.089C169.586 206.649 169.816 206.271 170.114 205.951C170.413 205.629 170.776 205.376 171.201 205.19C171.625 205.004 172.1 204.91 172.619 204.91C172.777 204.91 172.94 204.917 173.108 204.931C173.276 204.942 173.44 204.971 173.596 205.014L173.597 202.259Z" fill="#A30046"/>
<path d="M182.306 207.679C182.287 207.264 182.173 206.928 181.96 206.674C181.746 206.417 181.451 206.289 181.069 206.289C180.634 206.289 180.305 206.41 180.08 206.654C179.854 206.897 179.719 207.239 179.676 207.68L182.306 207.679ZM179.662 208.968C179.696 209.488 179.881 209.864 180.211 210.099C180.54 210.332 180.973 210.45 181.511 210.45C181.806 210.45 182.109 210.423 182.419 210.365C182.725 210.308 183.018 210.227 183.297 210.124C183.391 210.298 183.472 210.507 183.542 210.748C183.612 210.991 183.652 211.251 183.659 211.528C182.983 211.788 182.217 211.919 181.368 211.919C180.745 211.919 180.209 211.831 179.762 211.66C179.313 211.484 178.951 211.246 178.668 210.937C178.387 210.63 178.177 210.265 178.041 209.84C177.909 209.415 177.842 208.952 177.842 208.449C177.842 207.955 177.91 207.492 178.049 207.058C178.186 206.624 178.394 206.248 178.668 205.926C178.942 205.605 179.278 205.352 179.684 205.166C180.087 204.98 180.557 204.886 181.095 204.886C181.564 204.886 181.982 204.969 182.344 205.134C182.71 205.299 183.018 205.523 183.275 205.809C183.532 206.096 183.724 206.437 183.855 206.83C183.986 207.223 184.051 207.648 184.051 208.098C184.051 208.263 184.043 208.426 184.033 208.584C184.018 208.745 184.002 208.873 183.986 208.969H179.663L179.662 208.968Z" fill="#A30046"/>
<path d="M186.484 205.042C186.606 205.015 186.729 204.995 186.851 204.983C186.97 204.97 187.106 204.963 187.254 204.963C187.4 204.963 187.531 204.97 187.645 204.983C187.757 204.996 187.873 205.015 187.995 205.042C188.022 205.086 188.046 205.149 188.067 205.23C188.089 205.312 188.109 205.401 188.125 205.488C188.14 205.581 188.157 205.669 188.172 205.754C188.183 205.843 188.193 205.915 188.203 205.976C188.288 205.846 188.394 205.716 188.516 205.588C188.637 205.455 188.778 205.339 188.938 205.235C189.099 205.132 189.278 205.047 189.479 204.982C189.679 204.917 189.899 204.885 190.144 204.885C190.908 204.885 191.48 205.093 191.87 205.509C192.254 205.925 192.446 206.579 192.446 207.473V211.763C192.134 211.816 191.828 211.841 191.522 211.841C191.218 211.841 190.91 211.816 190.599 211.763V207.966C190.599 207.498 190.526 207.14 190.385 206.887C190.241 206.635 189.992 206.511 189.635 206.511C189.489 206.511 189.335 206.533 189.179 206.574C189.023 206.619 188.884 206.702 188.757 206.828C188.63 206.955 188.529 207.13 188.451 207.354C188.371 207.58 188.331 207.875 188.331 208.239V211.762C188.022 211.815 187.714 211.84 187.408 211.84C187.106 211.84 186.798 211.815 186.484 211.762V205.042Z" fill="#A30046"/>
<path d="M195.285 206.446H194.436L194.373 206.186L196.809 203.078H197.107V205.042H198.681C198.708 205.173 198.726 205.288 198.736 205.393C198.743 205.496 198.749 205.605 198.749 205.717C198.749 205.838 198.743 205.956 198.736 206.068C198.726 206.182 198.709 206.307 198.681 206.446H197.107V209.085C197.107 209.353 197.129 209.571 197.172 209.734C197.216 209.901 197.277 210.03 197.361 210.125C197.442 210.22 197.543 210.286 197.667 210.32C197.788 210.353 197.931 210.373 198.096 210.373C198.228 210.373 198.355 210.362 198.48 210.341C198.607 210.319 198.717 210.299 198.813 210.281C198.874 210.446 198.917 210.617 198.942 210.795C198.967 210.974 198.981 211.131 198.981 211.271C198.981 211.367 198.981 211.447 198.976 211.512C198.968 211.575 198.965 211.639 198.956 211.7C198.556 211.796 198.145 211.843 197.719 211.843C196.929 211.843 196.327 211.658 195.91 211.289C195.494 210.921 195.285 210.321 195.285 209.49V206.448V206.446Z" fill="#A30046"/>
<path d="M201.156 203.91C201.102 203.616 201.077 203.324 201.077 203.04C201.077 202.761 201.102 202.47 201.156 202.168C201.301 202.143 201.46 202.121 201.631 202.108C201.802 202.095 201.954 202.089 202.095 202.089C202.239 202.089 202.401 202.096 202.576 202.108C202.747 202.121 202.909 202.143 203.056 202.168C203.081 202.315 203.1 202.459 203.109 202.605C203.118 202.745 203.122 202.894 203.122 203.041C203.122 203.178 203.118 203.321 203.109 203.469C203.1 203.616 203.082 203.764 203.056 203.911C202.91 203.936 202.75 203.955 202.581 203.964C202.411 203.973 202.252 203.977 202.105 203.977C201.968 203.977 201.81 203.973 201.638 203.964C201.462 203.955 201.301 203.937 201.155 203.911L201.156 203.91ZM201.428 206.446H200.557C200.532 206.332 200.512 206.214 200.498 206.087C200.487 205.962 200.479 205.843 200.479 205.729C200.479 205.496 200.505 205.266 200.558 205.042H203.239V211.763C202.929 211.815 202.625 211.84 202.328 211.84C202.042 211.84 201.743 211.815 201.43 211.763V206.446H201.428Z" fill="#A30046"/>
<path d="M209.396 208.683C209.291 208.663 209.181 208.651 209.057 208.636C208.934 208.623 208.827 208.616 208.73 208.616C208.308 208.616 207.972 208.694 207.725 208.844C207.475 208.996 207.352 209.242 207.352 209.579C207.352 209.803 207.4 209.979 207.495 210.099C207.592 210.22 207.705 210.309 207.839 210.365C207.974 210.422 208.118 210.457 208.272 210.469C208.42 210.482 208.555 210.488 208.667 210.488C208.798 210.488 208.929 210.477 209.058 210.457C209.189 210.436 209.301 210.416 209.397 210.397L209.396 208.683ZM209.396 207.343C209.396 207.135 209.36 206.965 209.291 206.835C209.222 206.706 209.126 206.603 209.005 206.529C208.881 206.457 208.733 206.406 208.556 206.381C208.379 206.356 208.181 206.343 207.963 206.343C207.494 206.343 206.994 206.434 206.466 206.614C206.344 206.39 206.255 206.178 206.194 205.977C206.133 205.778 206.1 205.539 206.1 205.262C206.484 205.133 206.866 205.038 207.248 204.976C207.629 204.916 207.986 204.885 208.315 204.885C209.217 204.885 209.921 205.101 210.428 205.534C210.939 205.968 211.192 206.663 211.192 207.614V211.515C210.888 211.611 210.518 211.703 210.086 211.788C209.651 211.875 209.162 211.918 208.615 211.918C208.169 211.918 207.764 211.879 207.395 211.801C207.029 211.723 206.711 211.593 206.448 211.412C206.182 211.23 205.977 210.996 205.836 210.708C205.693 210.424 205.621 210.073 205.621 209.655C205.621 209.241 205.712 208.891 205.887 208.61C206.066 208.328 206.296 208.102 206.577 207.934C206.86 207.764 207.174 207.645 207.52 207.57C207.868 207.496 208.214 207.46 208.563 207.46C208.814 207.46 209.092 207.473 209.396 207.498V207.343Z" fill="#A30046"/>
<path d="M213.756 202.258C214.067 202.206 214.377 202.181 214.681 202.181C214.976 202.181 215.278 202.206 215.592 202.258V209.084C215.592 209.351 215.608 209.57 215.637 209.733C215.668 209.9 215.715 210.026 215.78 210.118C215.845 210.209 215.928 210.27 216.034 210.306C216.137 210.34 216.27 210.359 216.425 210.359C216.494 210.359 216.572 210.351 216.653 210.346C216.737 210.337 216.817 210.325 216.896 210.306C216.99 210.661 217.037 211.008 217.037 211.346V211.534C217.037 211.591 217.028 211.653 217.01 211.722C216.873 211.765 216.704 211.796 216.511 211.815C216.317 211.83 216.134 211.84 215.969 211.84C215.302 211.84 214.767 211.655 214.363 211.286C213.96 210.918 213.757 210.318 213.757 209.487V202.258L213.756 202.258Z" fill="#A30046"/>
<path d="M219.094 203.91C219.041 203.616 219.016 203.324 219.016 203.04C219.016 202.761 219.041 202.47 219.094 202.168C219.24 202.143 219.398 202.121 219.569 202.108C219.739 202.095 219.893 202.089 220.032 202.089C220.179 202.089 220.338 202.096 220.513 202.108C220.688 202.121 220.845 202.143 220.996 202.168C221.021 202.315 221.039 202.459 221.047 202.605C221.052 202.745 221.06 202.894 221.06 203.041C221.06 203.178 221.052 203.321 221.047 203.469C221.039 203.616 221.022 203.764 220.996 203.911C220.845 203.936 220.688 203.955 220.519 203.964C220.35 203.973 220.191 203.977 220.042 203.977C219.905 203.977 219.749 203.973 219.575 203.964C219.401 203.955 219.24 203.937 219.094 203.911V203.91ZM219.367 206.446H218.495C218.47 206.332 218.449 206.214 218.436 206.087C218.424 205.962 218.418 205.843 218.418 205.729C218.418 205.496 218.445 205.266 218.496 205.042H221.177V211.763C220.864 211.815 220.562 211.84 220.267 211.84C219.98 211.84 219.682 211.815 219.368 211.763L219.367 206.446Z" fill="#A30046"/>
<path d="M223.979 205.042C224.1 205.015 224.221 204.995 224.344 204.983C224.463 204.97 224.599 204.963 224.746 204.963C224.894 204.963 225.022 204.97 225.138 204.983C225.248 204.996 225.366 205.015 225.487 205.042C225.514 205.086 225.538 205.149 225.559 205.23C225.581 205.312 225.601 205.401 225.618 205.488C225.634 205.581 225.65 205.669 225.663 205.754C225.676 205.843 225.688 205.915 225.696 205.976C225.785 205.846 225.886 205.716 226.009 205.588C226.131 205.455 226.272 205.339 226.433 205.235C226.592 205.132 226.773 205.047 226.971 204.982C227.172 204.917 227.394 204.885 227.636 204.885C228.4 204.885 228.974 205.093 229.361 205.509C229.747 205.925 229.941 206.579 229.941 207.473V211.763C229.625 211.816 229.319 211.841 229.015 211.841C228.713 211.841 228.405 211.816 228.09 211.763V207.966C228.09 207.498 228.021 207.14 227.878 206.887C227.735 206.635 227.483 206.511 227.127 206.511C226.981 206.511 226.829 206.533 226.671 206.574C226.517 206.619 226.376 206.702 226.249 206.828C226.124 206.955 226.021 207.13 225.943 207.354C225.864 207.58 225.826 207.875 225.826 208.239V211.762C225.514 211.815 225.206 211.84 224.9 211.84C224.6 211.84 224.29 211.815 223.979 211.762V205.042Z" fill="#A30046"/>
<path d="M235.239 208.448C235.602 208.448 235.866 208.343 236.025 208.135C236.187 207.926 236.268 207.641 236.268 207.277C236.268 206.913 236.187 206.624 236.025 206.41C235.866 206.2 235.602 206.094 235.239 206.094C234.864 206.094 234.595 206.2 234.43 206.41C234.266 206.623 234.183 206.913 234.183 207.277C234.183 207.641 234.266 207.926 234.43 208.135C234.595 208.343 234.864 208.448 235.239 208.448ZM234.703 211.996C234.513 211.987 234.353 212.009 234.228 212.061C234.103 212.114 234.004 212.18 233.93 212.262C233.857 212.345 233.803 212.436 233.774 212.535C233.742 212.634 233.729 212.734 233.729 212.827C233.729 213.157 233.85 213.381 234.098 213.497C234.346 213.615 234.677 213.674 235.093 213.674C235.64 213.674 236.08 213.587 236.414 213.412C236.747 213.24 236.917 213.006 236.917 212.712C236.917 212.625 236.906 212.541 236.885 212.464C236.864 212.386 236.82 212.315 236.762 212.249C236.7 212.186 236.617 212.129 236.507 212.088C236.4 212.044 236.252 212.021 236.072 212.021L234.703 211.996ZM236.371 210.645C237.161 210.662 237.743 210.837 238.113 211.169C238.488 211.505 238.675 211.977 238.675 212.594C238.675 212.957 238.581 213.289 238.391 213.589C238.197 213.887 237.938 214.142 237.606 214.35C237.277 214.558 236.888 214.717 236.434 214.831C235.984 214.943 235.498 215 234.977 215C234.455 215 234.013 214.956 233.651 214.877C233.284 214.793 232.988 214.678 232.758 214.531C232.528 214.383 232.363 214.203 232.262 213.983C232.163 213.767 232.113 213.529 232.113 213.27C232.113 212.879 232.208 212.56 232.392 212.308C232.581 212.057 232.831 211.834 233.143 211.644C232.943 211.523 232.784 211.373 232.668 211.197C232.55 211.018 232.491 210.79 232.491 210.512C232.491 210.183 232.561 209.915 232.699 209.707C232.84 209.5 233.045 209.299 233.313 209.11C233.009 208.891 232.775 208.627 232.61 208.316C232.443 208.003 232.362 207.656 232.362 207.276C232.362 206.938 232.425 206.623 232.557 206.334C232.688 206.042 232.876 205.791 233.124 205.579C233.371 205.366 233.671 205.199 234.028 205.078C234.383 204.957 234.783 204.896 235.225 204.896C235.66 204.896 236.058 204.964 236.422 205.096C236.788 205.232 237.089 205.404 237.333 205.612C237.498 205.396 237.702 205.233 237.945 205.124C238.189 205.016 238.519 204.961 238.937 204.961C238.952 205.075 238.967 205.185 238.98 205.292C238.992 205.402 239 205.516 239 205.637C239 205.776 238.992 205.914 238.987 206.055C238.978 206.193 238.96 206.335 238.936 206.484H237.88C237.922 206.569 237.961 206.673 237.998 206.795C238.03 206.916 238.049 207.077 238.049 207.276C238.049 207.612 237.987 207.927 237.86 208.219C237.733 208.508 237.549 208.76 237.308 208.967C237.065 209.174 236.766 209.339 236.413 209.461C236.061 209.582 235.665 209.641 235.223 209.641C234.85 209.641 234.515 209.603 234.222 209.525C234.073 209.62 233.983 209.723 233.948 209.829C233.914 209.937 233.897 210.04 233.897 210.135C233.897 210.274 233.941 210.387 234.033 210.473C234.124 210.56 234.306 210.609 234.585 210.615L236.369 210.642L236.371 210.645Z" fill="#A30046"/>
<path d="M48.2756 178.281L29.4192 152.521V178.281H20.998V138.784H29.6566L47.9798 163.595V138.784H56.4001V178.281H48.2756Z" fill="#231F20"/>
<path d="M62.3281 158.563C62.3281 146.424 71.5189 138.131 83.3783 138.131C92.0963 138.131 97.1377 142.869 99.9249 147.785L92.6888 151.339C91.029 148.14 87.4712 145.593 83.3783 145.593C76.2052 145.593 70.9858 151.1 70.9858 158.563C70.9858 166.025 76.2052 171.532 83.3783 171.532C87.4712 171.532 91.029 169.045 92.6888 165.788L99.9249 169.282C97.0774 174.196 92.0972 178.993 83.3783 178.993C71.5199 178.993 62.3281 170.703 62.3281 158.562V158.563Z" fill="#231F20"/>
<path d="M132.066 178.281V161.702H113.382V178.281H104.965V138.784H113.382V154.299H132.066V138.784H140.543V178.281H132.066Z" fill="#231F20"/>
<path d="M148.309 178.281V138.784H176.298V146.187H156.73V154.535H175.885V161.939H156.73V170.881H176.298V178.281H148.309Z" fill="#231F20"/>
<path d="M180.984 158.563C180.984 146.424 190.173 138.131 202.034 138.131C210.75 138.131 215.792 142.869 218.579 147.785L211.346 151.339C209.683 148.14 206.125 145.593 202.034 145.593C194.859 145.593 189.641 151.1 189.641 158.563C189.641 166.025 194.859 171.532 202.034 171.532C206.125 171.532 209.683 169.045 211.346 165.788L218.579 169.282C215.731 174.196 210.751 178.993 202.034 178.993C190.173 178.993 180.984 170.703 180.984 158.562V158.563Z" fill="#231F20"/>
</svg>
